<?xml version="1.0" encoding="UTF-8" standalone="no"?>
<svg xmlns="http://www.w3.org/2000/svg" width="512" height="512" viewBox="0 0 512 512" fill="none">
  <!-- Paper stack -->
  <g>
    <!-- Bottom paper -->
    <rect x="80" y="160" width="320" height="280" rx="8" fill="#f5f7fa" stroke="#2d3748" stroke-width="8"/>
    <!-- Middle paper -->
    <rect x="100" y="140" width="320" height="280" rx="8" fill="#ffffff" stroke="#2d3748" stroke-width="8"/>
    <!-- Top paper with lines -->
    <rect x="120" y="120" width="320" height="280" rx="8" fill="#ffffff" stroke="#2d3748" stroke-width="8"/>
    
    <!-- Paper lines -->
    <line x1="150" y1="180" x2="410" y2="180" stroke="#e0e0e0" stroke-width="4"/>
    <line x1="150" y1="220" x2="410" y2="220" stroke="#e0e0e0" stroke-width="4"/>
    <line x1="150" y1="260" x2="410" y2="260" stroke="#e0e0e0" stroke-width="4"/>
    <line x1="150" y1="300" x2="410" y2="300" stroke="#e0e0e0" stroke-width="4"/>
    <line x1="150" y1="340" x2="410" y2="340" stroke="#e0e0e0" stroke-width="4"/>
    
    <!-- Text on paper (QTI) -->
    <text x="270" y="240" font-family="Segoe UI, Tahoma, Geneva, Verdana, sans-serif" font-size="48" font-weight="bold" fill="#2d3748" text-anchor="middle">QTI</text>
  </g>
  
  <!-- Pen -->
  <g transform="rotate(-45, 300, 180)">
    <!-- Pen body -->
    <rect x="240" y="100" width="120" height="30" rx="4" fill="#ffb81c" stroke="#2d3748" stroke-width="4"/>
    
    <!-- Pen tip -->
    <path d="M240 115 L220 130 L240 145 Z" fill="#2d3748" stroke="#2d3748" stroke-width="2"/>
    
    <!-- Pen details -->
    <rect x="330" y="100" width="30" height="30" rx="4" fill="#718096" stroke="#2d3748" stroke-width="4"/>
    <line x1="310" y1="100" x2="310" y2="130" stroke="#2d3748" stroke-width="2"/>
    <line x1="290" y1="100" x2="290" y2="130" stroke="#2d3748" stroke-width="2"/>
  </g>
  
  <!-- CSV icon (matching the site's fa-file-csv icon) -->
  <g transform="translate(180, 300) scale(0.08)">
    <path d="M64 0C28.7 0 0 28.7 0 64V448c0 35.3 28.7 64 64 64H320c35.3 0 64-28.7 64-64V160H256c-17.7 0-32-14.3-32-32V0H64zM256 0V128H384L256 0zM196.7 275.2c8.4-3.7 14.5-11.4 15.2-20.7c1-13.7-9.4-25.5-23.2-26.5c-10.2-.7-19.3 4.6-24.3 12.8c-2.3 3.7-1.2 8.7 2.5 11s8.7 1.2 11-2.5c2.1-3.5 5.9-5.9 10.3-5.5c4.1 .3 7.5 3.1 8.2 7.1c.7 4-1.5 7.8-5.4 9.4c-10.5 4.6-17.8 14.9-17.8 26.9c0 4.4 3.6 8 8 8s8-3.6 8-8c0-5.9 3.5-11.1 8.6-13.5zm-39 10.5c.8-3.1-1-6.3-4.1-7.1l-21.5-5.4c-3.1-.8-6.3 1-7.1 4.1l-8.6 34.3c-.8 3.1 1 6.3 4.1 7.1l21.5 5.4c3.1 .8 6.3-1 7.1-4.1l8.6-34.3zm95.9 28.4l12.3-29.6c1.3-3.1-.3-6.6-3.4-7.9s-6.6 .3-7.9 3.4l-12.3 29.6c-1.3 3.1 .3 6.6 3.4 7.9s6.6-.3 7.9-3.4zM112 192c-8.8 0-16 7.2-16 16s7.2 16 16 16H304c8.8 0 16-7.2 16-16s-7.2-16-16-16H112z" fill="#ffb81c"/>
  </g>
</svg>
